#N canvas 286 264 450 323 10;
#X obj 131 112 oscparse;
#X obj 131 138 route list;
#X obj 84 290 outlet;
#X obj 131 85 netreceive -u -b \$1;
#X obj 131 184 route \$2;
#X obj 106 254 unpack 0;
#X connect 0 0 1 0;
#X connect 1 0 4 0;
#X connect 3 0 0 0;
#X connect 4 0 5 0;
#X connect 5 0 2 0;
