#N canvas 0 0 755 456 10;
#N canvas 529 29 450 300 delay_effect 0;
#X obj 105 120 vsl 15 32 0 1 0 1 empty empty delay 0 -9 0 10 -262144
-1 -1 1600 1;
#X obj 158 68 inlet;
#X obj 248 176 *~;
#X obj 59 68 loadbang;
#X obj 115 68 inlet~;
#X obj 189 226 outlet~;
#X obj 249 205 delwrite~ \$0-delayA 1000;
#X obj 248 124 delread~ \$0-delayA \$1;
#X msg 286 94 500;
#X obj 234 68 inlet;
#X obj 286 68 loadbang;
#X connect 0 0 2 1;
#X connect 1 0 0 0;
#X connect 2 0 5 0;
#X connect 2 0 6 0;
#X connect 3 0 0 0;
#X connect 4 0 5 0;
#X connect 4 0 6 0;
#X connect 7 0 2 0;
#X connect 8 0 7 0;
#X connect 9 0 7 0;
#X connect 10 0 8 0;
#X coords 0 -1 1 1 85 60 2 100 100;
#X restore 25 287 pd delay_effect;
#N canvas 434 197 509 293 finalout 0;
#X obj 267 140 metro 20;
#X obj 267 70 tgl 15 0 empty empty empty 17 7 0 10 -262144 -1 -1 1
1;
#X obj 326 140 r~ Wave;
#X obj 267 44 loadbang;
#X obj 267 164 tabwrite~ \$0-out;
#X msg 275 95 \; pd dsp \$1;
#X text 340 101 dsp on;
#X obj 40 75 dac~;
#X obj 70 75 s~ Wave;
#X obj 109 136 cnv 15 60 40 empty empty empty 20 12 0 14 -262144 -66577
0;
#N canvas 0 22 450 278 (subpatch) 0;
#X array \$0-out 100 float 5;
#A 0 0 0 0 0 0 0 0 0 0 0 0 0 0 0 0 0 0 0 0 0 0 0 0 0 0 0 0 0 0 0 0
0 0 0 0 0 0 0 0 0 0 0 0 0 0 0 0 0 0 0 0 0 0 0 0 0 0 0 0 0 0 0 0 0 0
0 0 0 0 0 0 0 0 0 0 0 0 0 0 0 0 0 0 0 0 0 0 0 0 0 0 0 0 0 0 0 0 0 0
0;
#X coords 0 -1 99 1 60 40 1;
#X restore 110 136 graph;
#X obj 40 9 inlet~;
#X obj 82 9 inlet~;
#X text 103 102 LEFT;
#X text 146 102 RIGHT;
#X obj 194 141 vsl 15 32 0 1 0 1 empty empty empty 0 -9 0 10 -262144
-1 -1 2000 1;
#X text 193 102 VOL;
#X obj 40 41 *~;
#X connect 0 0 4 0;
#X connect 1 0 0 0;
#X connect 1 0 5 0;
#X connect 2 0 4 0;
#X connect 3 0 1 0;
#X connect 11 0 17 0;
#X connect 12 0 17 0;
#X connect 15 0 17 1;
#X connect 17 0 7 0;
#X connect 17 0 7 1;
#X connect 17 0 8 0;
#X coords 0 -1 1 1 120 80 2 100 100;
#X restore 25 357 pd finalout;
#X obj 25 243 sound_set1;
#X obj 25 7 tgl 15 0 empty empty empty 17 7 0 10 -262144 -1 -1 0 1
;
#X obj 95 243 sound_set2;
#X text 344 104 MIDI 基準の音階, f 13;
#X text 263 244 加算合成;
#X text 130 312 Delayエフェクト;
#X text 169 394 音の出力;
#X msg 475 34 2;
#X msg 535 34 7;
#X msg 565 34 9;
#X msg 595 34 11;
#X msg 505 34 4;
#X obj 25 119 sel 0 1 2 3 4 5;
#X msg 475 54 0;
#X msg 505 54 2;
#X msg 535 54 4;
#X msg 625 54 12;
#X msg 565 54 7;
#X msg 595 54 9;
#X msg 475 74 0;
#X msg 625 74 12;
#X msg 565 74 7;
#X msg 505 74 4;
#X msg 535 74 5;
#X msg 595 74 11;
#X msg 475 94 1;
#X msg 505 94 3;
#X msg 535 94 6;
#X msg 565 94 8;
#X msg 595 94 10;
#X obj 25 99 random 5;
#X obj 451 175 osc-rcv 4559 note;
#X msg 25 144 2;
#X msg 55 144 4;
#X msg 85 144 7;
#X msg 115 144 9;
#X msg 145 144 11;
#X text 457 7 音の組み合わせ例;
#X text 657 34 レミソラシ;
#X text 657 94 黒鍵のみ;
#X text 657 54 ヨナヌキあかるい;
#X text 657 74 ヨナヌキくらい;
#X text 147 104 5つの音階の差分;
#X text 450 157 Processingから送られるOSC;
#X obj 25 59 tgl 15 0 empty empty empty 17 7 0 10 -262144 -1 -1 0 1
;
#X obj 166 243 sound_set3;
#X floatatom 451 204 5 0 0 0 - - -, f 5;
#X obj 25 224 +;
#X obj 245 99 random 5;
#X msg 245 143 36;
#X msg 275 143 48;
#X msg 305 143 60;
#X msg 335 143 72;
#X msg 365 143 84;
#X obj 245 119 sel 0 1 2 3 4;
#X obj 109 38 metro 2000;
#X obj 25 78 metro 125;
#X connect 0 0 1 0;
#X connect 0 0 1 1;
#X connect 2 0 0 0;
#X connect 3 0 57 0;
#X connect 4 0 0 0;
#X connect 14 0 34 0;
#X connect 14 1 35 0;
#X connect 14 2 36 0;
#X connect 14 3 37 0;
#X connect 14 4 38 0;
#X connect 32 0 14 0;
#X connect 33 0 48 0;
#X connect 34 0 49 0;
#X connect 35 0 49 0;
#X connect 36 0 49 0;
#X connect 37 0 49 0;
#X connect 38 0 49 0;
#X connect 46 0 58 0;
#X connect 47 0 0 0;
#X connect 48 0 47 0;
#X connect 48 0 4 0;
#X connect 49 0 2 0;
#X connect 50 0 56 0;
#X connect 51 0 49 1;
#X connect 52 0 49 1;
#X connect 53 0 49 1;
#X connect 54 0 49 1;
#X connect 55 0 49 1;
#X connect 56 0 51 0;
#X connect 56 1 52 0;
#X connect 56 2 53 0;
#X connect 56 3 54 0;
#X connect 56 4 55 0;
#X connect 57 0 46 0;
#X connect 57 0 50 0;
#X connect 58 0 32 0;
